PathFileType	4	(X/Y/Z)	D:\TRACE\v60_Jaco2_6-2-23\ArmBody_Mo1_DMP_1-platform.trc
DataRate	CameraRate	NumFrames	NumMarkers	Units	OrigDataRate	OrigDataStartFrame	OrigNumFrames
100.00	100.00	      29	5	mm	100.00	2897	      5792
Frame#	Time	Left_Front			Right_Front			Left_Aft			Right_Aft			Post			
		X1	Y1	Z1	X2	Y2	Z2	X3	Y3	Z3	X4	Y4	Z4	X5	Y5	Z5	

2897	28.960				767.46692	35.30103	-626.37097	-731.92786	-10.86088	486.79498	685.69275	-12.11816	588.96735	-10.06199	1344.25989	-908.93158	
2898	28.970				766.29254	35.18701	-626.48724	-732.98456	-10.75540	486.67407	684.27631	-12.01683	588.87854	-10.99494	1344.18225	-909.65436	
2899	28.980				765.53888	34.71951	-626.53101	-734.02979	-10.55494	486.75125	683.58771	-11.82380	588.91486	-11.80280	1343.93018	-910.27417	
2900	28.990				764.46252	34.51227	-626.60443	-735.06311	-10.50964	486.84283	682.77356	-11.78159	588.95361	-12.73403	1343.62952	-910.87109	
2901	29.000				763.56976	34.44878	-626.52698	-735.61176	-10.41622	486.86139	681.65009	-11.60961	588.88055	-13.73961	1343.40137	-911.48944	
2902	29.010				762.80756	34.20056	-626.43353	-736.70496	-10.41247	486.70532	680.90405	-11.25069	588.81415	-14.78187	1343.13647	-911.91852	
2903	29.020				761.78613	34.02484	-626.68134	-737.78613	-10.11333	486.55478	679.75513	-11.43950	588.67004	-15.47203	1342.85437	-912.32520	
2904	29.030				760.69073	33.71336	-626.95331	-738.58319	-9.94594	486.47028	678.66028	-11.20436	588.46655	-16.37427	1342.59497	-912.57477	
2905	29.040				759.73077	33.61123	-626.85974	-739.59332	-10.00799	486.81430	678.02856	-10.88746	588.50104	-17.64527	1342.28613	-912.85370	
2906	29.050				758.89081	33.41454	-626.70605	-740.26819	-9.95239	486.53760	676.92084	-10.83137	588.43121	-18.40302	1341.83618	-913.29016	
2907	29.060				758.05121	33.18022	-627.01428	-741.07642	-9.92907	486.43762	676.05847	-10.44546	588.42480	-19.06701	1341.70471	-913.53448	
2908	29.070				757.02856	33.11034	-627.06696	-742.45215	-9.28843	486.40579	675.33038	-10.30450	588.38544	-20.17929	1341.51001	-913.77112	
2909	29.080				756.05658	32.95902	-627.13861	-743.27728	-9.28617	486.23755	674.29169	-10.28482	588.31226	-21.28327	1341.23120	-914.19971	
2910	29.090				755.14819	32.45602	-627.17163	-744.21893	-8.95057	486.13385	673.49072	-10.08012	588.30212	-22.00641	1340.72681	-914.54364	
2911	29.100				754.49280	32.02424	-627.26617	-745.31909	-8.79369	486.01294	672.13068	-9.93622	588.30383	-22.99600	1340.44617	-914.97125	
2912	29.110				753.79968	31.94404	-627.24628	-745.66486	-9.31889	486.21408	671.58655	-9.73199	588.24341	-23.63124	1340.20044	-915.57660	
2913	29.120				752.28809	31.80579	-627.32965	-746.68884	-8.92260	486.01639	670.67902	-9.61223	588.25555	-24.47151	1339.91199	-916.12408	
2914	29.130				751.72089	31.63806	-627.42847	-747.84985	-8.41296	485.78442	669.29718	-9.59907	588.06305	-25.56026	1339.51746	-916.83319	
2915	29.140				751.09387	31.40530	-627.54944	-748.57263	-8.13937	485.67508	669.52734	-8.80951	588.22339	-26.27692	1339.20422	-917.55933	
2916	29.150				750.11749	31.16184	-627.37183	-749.61462	-8.16487	485.52600	668.19128	-9.06406	587.96045	-27.31238	1339.00183	-918.28253	
2917	29.160				749.05035	31.08650	-627.37659	-750.34045	-8.03133	485.47684	667.18085	-8.75867	587.80750	-28.18401	1338.74402	-918.98352	
2918	29.170				748.28979	30.66262	-627.71393	-751.14648	-7.83865	485.53348	666.46368	-8.56082	587.81616	-28.51543	1338.42004	-919.72260	
2919	29.180				747.54095	30.45699	-627.89270	-752.16241	-7.58107	485.55432	665.91278	-8.36242	587.76636	-29.48721	1337.95618	-920.05499	
2920	29.190				746.67383	30.39460	-627.73004	-752.69403	-7.31117	485.36578	664.84564	-8.17022	587.80133	-30.47042	1337.60583	-920.50983	
2921	29.200				745.80286	30.05584	-627.64960	-753.56274	-7.08683	485.20917	664.03021	-7.93619	587.79437	-31.29351	1337.30273	-921.02643	
2922	29.210				745.01868	29.52785	-627.92389	-754.62646	-6.96980	485.21609	663.38879	-7.67386	587.68604	-32.09293	1337.01367	-921.49908	
2923	29.220				744.36426	29.37242	-628.12061	-755.21625	-6.90263	485.02643	662.38110	-7.62265	587.72839	-32.68341	1336.63062	-921.87921	
2924	29.230				743.65363	29.26340	-628.10492	-755.62488	-6.77714	484.98422	661.60065	-7.33658	587.56787	-33.44837	1336.12659	-922.33185	
2925	29.240				742.76135	28.93363	-628.11835	-756.71490	-6.37466	485.03473	661.09320	-7.17968	587.51331	-34.18153	1335.76477	-922.68414	
